<?xml version="1.0" encoding="utf-8"?>
<!-- Generator: Adobe Illustrator 17.0.0, SVG Export Plug-In . SVG Version: 6.00 Build 0)  -->
<!DOCTYPE svg PUBLIC "-//W3C//DTD SVG 1.1//EN" "http://www.w3.org/Graphics/SVG/1.1/DTD/svg11.dtd">
<svg version="1.1" xmlns="http://www.w3.org/2000/svg" xmlns:xlink="http://www.w3.org/1999/xlink" x="0px" y="0px" width="21px"
	 height="21px" viewBox="0 0 21 21" enable-background="new 0 0 21 21" xml:space="preserve">
<symbol  id="New_Symbol" viewBox="-248 -248 496 496">
	<g id="shape_4_4_">
		
			<image overflow="visible" opacity="0.06" width="496" height="496" xlink:href="860D70D6F2647A75.png"  transform="matrix(1 0 0 -1 -248 248)">
		</image>
		<g>
			
				<image overflow="visible" opacity="0.15" width="438" height="440" xlink:href="860D70D6F2647A77.png"  transform="matrix(1 0 0 -1 -219 222)">
			</image>
			<g>
				<path fill="#FFFFFF" d="M-209.696-204.752l29.589,108.039c-18.25,31.619-27.851,67.489-27.838,104.236
					c0.046,114.958,93.603,208.485,208.567,208.485c55.789-0.024,108.153-21.738,147.533-61.145
					c39.374-39.41,61.05-91.795,61.031-147.508c-0.049-114.953-93.619-208.496-208.564-208.496c-0.008,0,0.005,0,0,0h-0.09
					c-34.904,0.014-69.202,8.768-99.665,25.381L-209.696-204.752z M-94.01-138.015l6.333-3.754
					c26.611-15.791,57.119-24.143,88.231-24.159h0.068c95.544,0,173.308,77.745,173.348,173.297
					c0.014,46.307-17.997,89.849-50.727,122.602c-32.732,32.754-76.252,50.803-122.556,50.822
					c-95.62,0-173.381-77.734-173.419-173.283c-0.014-32.743,9.148-64.631,26.502-92.224l4.126-6.556l-17.517-63.947L-94.01-138.015
					z"/>
			</g>
		</g>
	</g>
	<linearGradient id="shape_3_1_" gradientUnits="userSpaceOnUse" x1="-0.2561" y1="-197.4712" x2="-0.2561" y2="208.7227">
		<stop  offset="0" style="stop-color:#20B038"/>
		<stop  offset="1" style="stop-color:#60D66A"/>
	</linearGradient>
	<path id="shape_3_2_" fill="url(#shape_3_1_)" d="M-202.442-197.471l28.565,104.301c-17.623,30.525-26.89,65.157-26.879,100.626
		c0.046,110.979,90.367,201.267,201.343,201.267c53.862-0.024,104.415-20.986,142.424-59.031
		c38.017-38.044,58.941-88.614,58.919-142.394C201.884-103.684,111.557-193.98,0.595-193.98c-0.008,0,0.005,0,0,0h-0.09
		c-33.696,0.011-66.805,8.469-96.212,24.496L-202.442-197.471z"/>
	<g id="shape_2_4_">
		
			<image overflow="visible" opacity="0.04" width="444" height="446" xlink:href="860D70D6F2647A72.png"  transform="matrix(1 0 0 -1 -222 228)">
		</image>
		<g>
			<g>
				<linearGradient id="SVGID_1_" gradientUnits="userSpaceOnUse" x1="-0.2548" y1="-204.7516" x2="-0.2548" y2="216.0085">
					<stop  offset="0" style="stop-color:#F9F9F9"/>
					<stop  offset="1" style="stop-color:#FFFFFF"/>
				</linearGradient>
				<path fill="url(#SVGID_1_)" d="M-209.696-204.752l29.589,108.039c-18.25,31.619-27.851,67.489-27.838,104.236
					c0.046,114.958,93.603,208.485,208.567,208.485c55.789-0.024,108.153-21.738,147.533-61.145
					c39.374-39.41,61.05-91.795,61.031-147.508c-0.049-114.953-93.619-208.496-208.564-208.496c-0.008,0,0.005,0,0,0h-0.09
					c-34.904,0.014-69.202,8.768-99.665,25.381L-209.696-204.752z M-94.01-138.015l6.333-3.754
					c26.611-15.791,57.119-24.143,88.231-24.159h0.068c95.544,0,173.308,77.745,173.348,173.297
					c0.014,46.307-17.997,89.849-50.727,122.602c-32.732,32.754-76.252,50.803-122.556,50.822
					c-95.62,0-173.381-77.734-173.419-173.283c-0.014-32.743,9.148-64.631,26.502-92.224l4.126-6.556l-17.517-63.947L-94.01-138.015
					z"/>
			</g>
		</g>
	</g>
	<g id="shape_1_4_">
		
			<image overflow="visible" opacity="0.06" width="237" height="221" xlink:href="860D70D6F2647A73.png"  transform="matrix(1 0 0 -1 -118 114)">
		</image>
		<g>
			<path fill-rule="evenodd" clip-rule="evenodd" fill="#FFFFFF" d="M-51.505,94.682c-3.904,8.678-8.013,8.852-11.727,9.004
				c-3.038,0.13-6.515,0.122-9.987,0.122c-3.475,0-9.121-1.306-13.896-6.52c-4.778-5.215-18.242-17.821-18.242-43.46
				c0-25.642,18.676-50.417,21.279-53.897c2.606-3.475,36.052-57.771,89.021-78.659c44.022-17.36,52.98-13.907,62.535-13.038
				c9.555,0.869,30.832,12.604,35.175,24.773c4.343,12.167,4.343,22.596,3.04,24.776c-1.303,2.172-4.778,3.475-9.99,6.081
				S64.873-20.923,60.095-19.185c-4.778,1.737-8.252,2.606-11.727-2.611c-3.475-5.212-13.456-16.947-16.496-20.422
				c-3.04-3.483-6.081-3.917-11.293-1.311c-5.212,2.614-21.996,8.111-41.907,25.864C-36.82-3.853-47.279,13.205-50.319,18.422
				c-3.04,5.212-0.326,8.035,2.288,10.633c2.34,2.335,5.212,6.083,7.818,9.126c2.601,3.043,3.469,5.215,5.206,8.689
				c1.737,3.48,0.869,6.523-0.434,9.129S-46.872,84.377-51.505,94.682z"/>
		</g>
	</g>
</symbol>
<g id="background_1_">
	
		<use xlink:href="#New_Symbol"  width="496" height="496" x="-248" y="-248" transform="matrix(0.0391 0 0 -0.0391 10.5 10.5)" overflow="visible"/>
</g>
<g id="WhatsApp_Logo">
</g>
</svg>
